{
  "accessors": [
    {
      "bufferView": 2,
      "componentType": 5126,
      "count": 1183,
      "max": [
        0.9855252504348755,
        0.9855252504348755,
        0.9855252504348755
      ],
      "min": [
        -0.9855252504348755,
        -0.9855252504348755,
        -0.9855252504348755
      ],
      "type": "VEC3"
    },
    {
      "bufferView": 2,
      "byteOffset": 14196,
      "componentType": 5126,
      "count": 1183,
      "max": [
        1.0,
        1.0,
        1.0
      ],
      "min": [
        -1.0,
        -1.0,
        -1.0
      ],
      "type": "VEC3"
    },
    {
      "bufferView": 1,
      "componentType": 5126,
      "count": 1183,
      "max": [
        0.8750001192092896,
        1.0000001192092896
      ],
      "min": [
        0.125,
        0.0
      ],
      "type": "VEC2"
    },
    {
      "bufferView": 0,
      "componentType": 5125,
      "count": 5184,
      "type": "SCALAR"
    },
    {
      "bufferView": 2,
      "byteOffset": 28392,
      "componentType": 5126,
      "count": 7314,
      "max": [
        0.9173488616943359,
        0.9672698974609375,
        0.1351107656955719
      ],
      "min": [
        -0.9319772124290466,
        -0.9678050875663757,
        0.0
      ],
      "type": "VEC3"
    },
    {
      "bufferView": 2,
      "byteOffset": 116160,
      "componentType": 5126,
      "count": 7314,
      "max": [
        0.9999993443489075,
        0.9999994039535522,
        1.0
      ],
      "min": [
        -1.0,
        -0.9999833106994629,
        -1.0
      ],
      "type": "VEC3"
    },
    {
      "bufferView": 1,
      "byteOffset": 9464,
      "componentType": 5126,
      "count": 7314,
      "max": [
        1.0000001192092896,
        1.000000238418579
      ],
      "min": [
        0.0,
        0.0
      ],
      "type": "VEC2"
    },
    {
      "bufferView": 0,
      "byteOffset": 20736,
      "componentType": 5125,
      "count": 40320,
      "type": "SCALAR"
    }
  ],
  "asset": {
    "extras": {
      "author": "arogeek (https://sketchfab.com/arogeek)",
      "license": "CC-BY-4.0 (http://creativecommons.org/licenses/by/4.0/)",
      "source": "https://sketchfab.com/3d-models/snapchat-58840c54a37f46f9a5279ed41b6fa6b6",
      "title": "SNAPCHAT"
    },
    "generator": "Sketchfab-15.22.0",
    "version": "2.0"
  },
  "bufferViews": [
    {
      "buffer": 0,
      "byteLength": 182016,
      "name": "floatBufferViews",
      "target": 34963
    },
    {
      "buffer": 0,
      "byteLength": 67976,
      "byteOffset": 182016,
      "byteStride": 8,
      "name": "floatBufferViews",
      "target": 34962
    },
    {
      "buffer": 0,
      "byteLength": 203928,
      "byteOffset": 249992,
      "byteStride": 12,
      "name": "floatBufferViews",
      "target": 34962
    }
  ],
  "buffers": [
    {
      "byteLength": 453920,
      "uri": "scene.bin"
    }
  ],
  "materials": [
    {
      "doubleSided": true,
      "name": "Plane__0",
      "pbrMetallicRoughness": {
        "metallicFactor": 0.0,
        "roughnessFactor": 0.44952517950530896
      }
    },
    {
      "doubleSided": true,
      "name": "Material.010",
      "pbrMetallicRoughness": {
        "baseColorFactor": [
          0.9602083826516892,
          0.9165636922597353,
          0.04026260005563008,
          1.0
        ],
        "metallicFactor": 0.0,
        "roughnessFactor": 0.0
      }
    }
  ],
  "meshes": [
    {
      "name": "Cube_Material.010_0",
      "primitives": [
        {
          "attributes": {
            "NORMAL": 1,
            "POSITION": 0,
            "TEXCOORD_0": 2
          },
          "indices": 3,
          "material": 1,
          "mode": 4
        }
      ]
    },
    {
      "name": "Plane__0",
      "primitives": [
        {
          "attributes": {
            "NORMAL": 5,
            "POSITION": 4,
            "TEXCOORD_0": 6
          },
          "indices": 7,
          "material": 0,
          "mode": 4
        }
      ]
    }
  ],
  "nodes": [
    {
      "children": [
        1
      ],
      "matrix": [
        1.0,
        0.0,
        0.0,
        0.0,
        0.0,
        2.220446049250313e-16,
        -1.0,
        0.0,
        0.0,
        1.0,
        2.220446049250313e-16,
        0.0,
        0.0,
        0.0,
        0.0,
        1.0
      ],
      "name": "Sketchfab_model"
    },
    {
      "children": [
        2
      ],
      "matrix": [
        0.009999999776482582,
        0.0,
        0.0,
        0.0,
        0.0,
        0.0,
        0.009999999776482582,
        0.0,
        0.0,
        -0.009999999776482582,
        0.0,
        0.0,
        0.0,
        0.0,
        0.0,
        1.0
      ],
      "name": "9159174ae2c142748304389545c03063.fbx"
    },
    {
      "children": [
        3,
        5
      ],
      "name": "RootNode"
    },
    {
      "children": [
        4
      ],
      "matrix": [
        3.1408044808895684e-05,
        -192.7812042236299,
        1.1490653827328826e-05,
        -0.0,
        -3.1408042925430525e-05,
        -1.1490658964051986e-05,
        -192.7812042236299,
        -0.0,
        -35.73609161376858,
        -5.822147983318788e-06,
        5.822148332459067e-06,
        -0.0,
        -14.966729164123535,
        14.966729164123535,
        0.0,
        1.0
      ],
      "name": "Cube"
    },
    {
      "mesh": 0,
      "name": "Cube_Material.010_0"
    },
    {
      "children": [
        6
      ],
      "matrix": [
        -6.201014511534204e-06,
        -141.86267089843713,
        8.45567309779461e-06,
        0.0,
        -2.3112363132611158e-05,
        -8.455672089799707e-06,
        -141.86267089843537,
        0.0,
        141.86267089843548,
        -6.201015889652235e-06,
        -2.311236275461307e-05,
        0.0,
        14.966729164123535,
        14.966729164123535,
        0.0,
        1.0
      ],
      "name": "Plane"
    },
    {
      "mesh": 1,
      "name": "Plane__0"
    }
  ],
  "scene": 0,
  "scenes": [
    {
      "name": "Sketchfab_Scene",
      "nodes": [
        0
      ]
    }
  ]
}
